<svg xmlns="http://www.w3.org/2000/svg" viewBox="0 0 32 32" width="32" height="32">
  <rect x="1" y="1" width="30" height="30" rx="7" fill="#e8843d"></rect>
  <g transform="translate(7.2 8) scale(0.0307)" fill="#3b2410">
    <path d="M571.31 193.94l-22.63-22.63c-6.25-6.25-16.38-6.25-22.63 0l-11.31 11.31-28.9-28.9c5.63-21.31.36-44.9-16.35-61.61l-45.25-45.25c-62.48-62.48-163.79-62.48-226.28 0l90.51 45.25v18.75c0 16.97 6.74 33.25 18.75 45.25l49.14 49.14c16.71 16.71 40.3 21.98 61.61 16.35l28.9 28.9-11.31 11.31c-6.25 6.25-6.25 16.38 0 22.63l22.63 22.63c6.25 6.25 16.38 6.25 22.63 0l90.51-90.51c6.25-6.25 6.25-16.38 0-22.62zM4.69 421.66c-6.25 6.25-6.25 16.38 0 22.63l45.25 45.25c6.25 6.25 16.38 6.25 22.63 0l185.04-185.04-67.88-67.88L4.69 421.66z"></path>
  </g>
</svg>